<svg id="mermaid-1624453239477" width="100%" xmlns="http://www.w3.org/2000/svg" xmlns:xlink="http://www.w3.org/1999/xlink" height="369" style="max-width: 450.375px;" viewBox="-20 -20 450.375 369"><style>#mermaid-1624453239477{font-family:"trebuchet ms",verdana,arial,sans-serif;font-size:16px;fill:#333;}#mermaid-1624453239477 .error-icon{fill:#552222;}#mermaid-1624453239477 .error-text{fill:#552222;stroke:#552222;}#mermaid-1624453239477 .edge-thickness-normal{stroke-width:2px;}#mermaid-1624453239477 .edge-thickness-thick{stroke-width:3.5px;}#mermaid-1624453239477 .edge-pattern-solid{stroke-dasharray:0;}#mermaid-1624453239477 .edge-pattern-dashed{stroke-dasharray:3;}#mermaid-1624453239477 .edge-pattern-dotted{stroke-dasharray:2;}#mermaid-1624453239477 .marker{fill:#333333;stroke:#333333;}#mermaid-1624453239477 .marker.cross{stroke:#333333;}#mermaid-1624453239477 svg{font-family:"trebuchet ms",verdana,arial,sans-serif;font-size:16px;}#mermaid-1624453239477 g.classGroup text{fill:#9370DB;fill:#131300;stroke:none;font-family:"trebuchet ms",verdana,arial,sans-serif;font-size:10px;}#mermaid-1624453239477 g.classGroup text .title{font-weight:bolder;}#mermaid-1624453239477 .classTitle{font-weight:bolder;}#mermaid-1624453239477 .node rect,#mermaid-1624453239477 .node circle,#mermaid-1624453239477 .node ellipse,#mermaid-1624453239477 .node polygon,#mermaid-1624453239477 .node path{fill:#ECECFF;stroke:#9370DB;stroke-width:1px;}#mermaid-1624453239477 .divider{stroke:#9370DB;stroke:1;}#mermaid-1624453239477 g.clickable{cursor:pointer;}#mermaid-1624453239477 g.classGroup rect{fill:#ECECFF;stroke:#9370DB;}#mermaid-1624453239477 g.classGroup line{stroke:#9370DB;stroke-width:1;}#mermaid-1624453239477 .classLabel .box{stroke:none;stroke-width:0;fill:#ECECFF;opacity:0.5;}#mermaid-1624453239477 .classLabel .label{fill:#9370DB;font-size:10px;}#mermaid-1624453239477 .relation{stroke:#333333;stroke-width:1;fill:none;}#mermaid-1624453239477 .dashed-line{stroke-dasharray:3;}#mermaid-1624453239477 #compositionStart,#mermaid-1624453239477 .composition{fill:#333333 !important;stroke:#333333 !important;stroke-width:1;}#mermaid-1624453239477 #compositionEnd,#mermaid-1624453239477 .composition{fill:#333333 !important;stroke:#333333 !important;stroke-width:1;}#mermaid-1624453239477 #dependencyStart,#mermaid-1624453239477 .dependency{fill:#333333 !important;stroke:#333333 !important;stroke-width:1;}#mermaid-1624453239477 #dependencyStart,#mermaid-1624453239477 .dependency{fill:#333333 !important;stroke:#333333 !important;stroke-width:1;}#mermaid-1624453239477 #extensionStart,#mermaid-1624453239477 .extension{fill:#333333 !important;stroke:#333333 !important;stroke-width:1;}#mermaid-1624453239477 #extensionEnd,#mermaid-1624453239477 .extension{fill:#333333 !important;stroke:#333333 !important;stroke-width:1;}#mermaid-1624453239477 #aggregationStart,#mermaid-1624453239477 .aggregation{fill:#ECECFF !important;stroke:#333333 !important;stroke-width:1;}#mermaid-1624453239477 #aggregationEnd,#mermaid-1624453239477 .aggregation{fill:#ECECFF !important;stroke:#333333 !important;stroke-width:1;}#mermaid-1624453239477 .edgeTerminals{font-size:11px;}#mermaid-1624453239477:root{--mermaid-font-family:"trebuchet ms",verdana,arial,sans-serif;}</style><g></g><defs><marker id="extensionStart" class="extension" refX="0" refY="7" markerWidth="190" markerHeight="240" orient="auto"><path d="M 1,7 L18,13 V 1 Z"></path></marker></defs><defs><marker id="extensionEnd" refX="19" refY="7" markerWidth="20" markerHeight="28" orient="auto"><path d="M 1,1 V 13 L18,7 Z"></path></marker></defs><defs><marker id="compositionStart" class="extension" refX="0" refY="7" markerWidth="190" markerHeight="240" orient="auto"><path d="M 18,7 L9,13 L1,7 L9,1 Z"></path></marker></defs><defs><marker id="compositionEnd" refX="19" refY="7" markerWidth="20" markerHeight="28" orient="auto"><path d="M 18,7 L9,13 L1,7 L9,1 Z"></path></marker></defs><defs><marker id="aggregationStart" class="extension" refX="0" refY="7" markerWidth="190" markerHeight="240" orient="auto"><path d="M 18,7 L9,13 L1,7 L9,1 Z"></path></marker></defs><defs><marker id="aggregationEnd" refX="19" refY="7" markerWidth="20" markerHeight="28" orient="auto"><path d="M 18,7 L9,13 L1,7 L9,1 Z"></path></marker></defs><defs><marker id="dependencyStart" class="extension" refX="0" refY="7" markerWidth="190" markerHeight="240" orient="auto"><path d="M 5,7 L9,13 L1,7 L9,1 Z"></path></marker></defs><defs><marker id="dependencyEnd" refX="19" refY="7" markerWidth="20" markerHeight="28" orient="auto"><path d="M 18,7 L9,13 L14,7 L9,1 Z"></path></marker></defs><g id="classid-ERC721URIStorage-0" class="classGroup" transform="translate(5.1640625,263.5 )"><rect x="0" y="0" width="102.703125" height="30" class=" "></rect><text y="15" x="0"><tspan class="title" x="5">ERC721URIStorage</tspan></text><line x1="0" y1="21" y2="21" x2="102.703125"></line><text x="5" y="31" fill="white" class="classText"></text><line x1="0" y1="26" y2="26" x2="102.703125"></line><text x="5" y="41" fill="white" class="classText"></text></g><g id="classid-NFTLabStore-1" class="classGroup" transform="translate(0,0 )"><rect x="0" y="0" width="410.375" height="178" class=" "></rect><text y="15" x="0"><tspan class="title" x="173.578125">NFTLabStore</tspan></text><line x1="0" y1="21" y2="21" x2="410.375"></line><text x="5" y="31" fill="white" class="classText"><tspan x="5">-mapping&lt;uint256, NFTLab&gt; _nfts</tspan><tspan x="5" dy="10">-mapping&lt;string, uint256&gt; _hashToId</tspan><tspan x="5" dy="10">-mapping&lt;uint256, NFTTransaction[]&gt; _history</tspan></text><line x1="0" y1="57" y2="57" x2="410.375"></line><text x="5" y="72" fill="white" class="classText"><tspan x="5">+constructor(string name, string symbol)</tspan><tspan x="5" dy="10">+isOwner()</tspan><tspan x="5" dy="10">Minted(address artist, string hash, string timestamp)</tspan><tspan x="5" dy="10">Transferred(uint256 tokenId, address seller, address buyer, string price, string timestamp)</tspan><tspan x="5" dy="10">+mint(NFTLab nft)</tspan><tspan x="5" dy="10">+transfer(NFTTransaction transaction)</tspan><tspan x="5" dy="10">+getHistory(uint256 tokenId) : NFTTransaction[]</tspan><tspan x="5" dy="10">+getTokenId(string hash) : uint256</tspan><tspan x="5" dy="10">+getNFTByHash(string hash) : NFTLab</tspan><tspan x="5" dy="10">+getNFTById(uint256 id) : NFTLab</tspan><tspan x="5" dy="10">#baseURI() : string</tspan></text></g><g id="classid-NFTLab-2" class="classGroup" transform="translate(157.8671875,243 )"><rect x="0" y="0" width="94.640625" height="71" class=" "></rect><text y="15" x="0"><tspan class="title" x="28.7109375">NFTLab</tspan></text><line x1="0" y1="21" y2="21" x2="94.640625"></line><text x="5" y="31" fill="white" class="classText"><tspan x="5">+address artist</tspan><tspan x="5" dy="10">+uint256 artistId</tspan><tspan x="5" dy="10">+string hash</tspan><tspan x="5" dy="10">+string timestamp</tspan></text><line x1="0" y1="67" y2="67" x2="94.640625"></line><text x="5" y="82" fill="white" class="classText"></text></g><g id="classid-NFTTransaction-3" class="classGroup" transform="translate(302.5078125,228 )"><rect x="0" y="0" width="94.640625" height="101" class=" "></rect><text y="15" x="0"><tspan class="title" x="9.53125">NFTTransaction</tspan></text><line x1="0" y1="21" y2="21" x2="94.640625"></line><text x="5" y="31" fill="white" class="classText"><tspan x="5">+uint256 tokenId</tspan><tspan x="5" dy="10">+address seller</tspan><tspan x="5" dy="10">+uint256 sellerId</tspan><tspan x="5" dy="10">+address buyer</tspan><tspan x="5" dy="10">+uint256 buyerId</tspan><tspan x="5" dy="10">+string price</tspan><tspan x="5" dy="10">+string timestamp</tspan></text><line x1="0" y1="97" y2="97" x2="94.640625"></line><text x="5" y="112" fill="white" class="classText"></text></g><path d="M89.11910635964912,178L83.6851927997076,182.16666666666666C78.25127923976608,186.33333333333334,67.38345211988305,194.66666666666666,61.949538559941516,208.91666666666666C56.515625,223.16666666666666,56.515625,243.33333333333334,56.515625,253.41666666666666L56.515625,263.5" id="edge0" class="relation" marker-end="url(#extensionEnd)"></path><path d="M205.1875,178L205.1875,182.16666666666666C205.1875,186.33333333333334,205.1875,194.66666666666666,205.1875,205.5C205.1875,216.33333333333334,205.1875,229.66666666666666,205.1875,236.33333333333334L205.1875,243" id="edge1" class="relation dashed-line" marker-end="url(#dependencyEnd)"></path><path d="M318.10868969298247,178L323.39526224415204,182.16666666666666C328.68183479532166,186.33333333333334,339.2549798976608,194.66666666666666,344.5415524488304,203C349.828125,211.33333333333334,349.828125,219.66666666666666,349.828125,223.83333333333334L349.828125,228" id="edge2" class="relation dashed-line" marker-end="url(#dependencyEnd)"></path></svg>